<svg version="1.2" xmlns="http://www.w3.org/2000/svg" viewBox="0 0 1549 249" width="1549" height="249">
	<title>Carlisle SynTec</title>
	<defs>
		<mask id="carlisle-mask">
			<path fill="white" d="m310.1 0.7l-146.9-0.1c0 0-104.3-7.9-126.9 60.5l-32.1 97.9c0 0-30.7 89.5 87.2 89.5h221.1l78.1-48.6-15.9 48.6h1095.2l78.8-247.8h-1184.8l-68.4 45.8z"/>
			<path fill-rule="evenodd" fill="black" d="m1426.6 200h-143.4l48.3-152.8h143.6l-10.1 32.2-90.9-0.1-8.1 25.3 91.1-0.2-10.8 33.7h-90.7l-9.4 29.8h90.7zm-169.7 0h-129l49.7-152.8h56.1l-38.6 119.8 72.8-0.1zm-329.1-152.7l-49.2 152.6-55.1 0.2 48.6-152.8zm-150.9 0l-37.6 119.1h72.9l-10.9 33.7-128.7-0.1 49.2-152.7zm-481.3-0.8l-47.4 31.7-98.1 0.1-28.4 87.4h120.5l176.1-118.4h77.2l-49.4 152.7-55.4-0.1 8.3-26.1-107.9-0.1-39.1 26.3-153.3-0.1c-24.7 0-40.5-13.3-35.2-29.9l30.3-94.6c9-21.6 21.6-28.9 54.4-28.9zm131.6 35.9l-83.6 56.2h65.7z"/>
			<path fill-rule="evenodd" fill="black" d="m995.3 91.1c-4.2 6.7-1.7 13.8 8.2 13.8l90.2-0.1c20.9-0.1 33.1 22.4 25.2 48.3-7.9 25.8-41 46.6-64.4 46.9h-152.1l11-34.1h129.2c17 0 22.8-3.9 27-10.7 4.2-6.7 3-13.8-11.4-13.9h-89.1c-18.5-1.7-29.5-21.9-21.9-46.6 7-22.8 34.6-41.8 56.9-46.2 3.4-0.8 6.9-1.2 10.4-1.2l8.1-0.1 125.7 0.1-11.5 33.5-118-0.1c-14.2 0.2-19.3 3.6-23.5 10.4zm-371.7 48.3l1.5 2.8 32.4 57.7-58.2 0.1-45.9-81.4h33.6c14.5-0.8 26.5-2.5 33.4-15.9 6.4-12.4-0.7-22.9-20.9-22.9h-33.7l-12.4 38.8-24.3 81.4h-58.5l49.4-152.8h126.9c20.9-0.1 32.1 21.6 24.2 47.6-6.1 20.3-27.4 37.7-47.5 44.6zm801.1 76.7c0-7.1 5.8-13 13-13 7.1 0 13 5.9 13 13 0 7.1-5.9 13-13 13-7.2 0-13-5.9-13-13zm23.5 0c0-5.9-4.7-10.5-10.5-10.5-5.9 0-10.5 4.6-10.5 10.5 0 5.9 4.6 10.5 10.5 10.5 5.8 0 10.5-4.6 10.5-10.5zm-4 7h-3.2l-3.2-5.9h-2.7v5.9h-2.7v-13.9h6.7c1.2 0 2.8 0 3.8 0.6 1.3 0.8 1.7 2.2 1.7 3.6 0 2.6-1.4 3.7-3.8 3.8zm-5-8c1.6 0.1 2.6-0.3 2.6-2.1 0-1.8-2-1.8-3.3-1.8h-3.4v3.9z"/>
		</mask>
	</defs>
	<path fill="white" mask="url(#carlisle-mask)" d="m310.1 0.7l-146.9-0.1c0 0-104.3-7.9-126.9 60.5l-32.1 97.9c0 0-30.7 89.5 87.2 89.5h221.1l78.1-48.6-15.9 48.6h1095.2l78.8-247.8h-1184.8l-68.4 45.8z"/>
</svg>