<?xml version="1.0" encoding="UTF-8"?><svg id="Layer_2" xmlns="http://www.w3.org/2000/svg" viewBox="0 0 601.77 94.7"><defs><style>.cls-1{fill:#414042;}.cls-2{fill:#231f20;}.cls-3{fill:#9c2327;}.cls-4{fill:#636466;}.cls-5{fill:#e81f2f;}</style></defs><g id="Layer_1-2"><g id="IKO"><path class="cls-2" d="M87.35,77.36l19.58-60.11h34.45c-1.37,5.8-3.59,11.53-5.17,17.47,4.62-5.29,9.04-11.76,13.87-17.47h33.46l-23.06,31.16,9.21,28.95h-34.67c-2.45-6.17-4.26-12.6-6.71-18.76-2.57,6-4.58,12.55-6.87,18.76h-34.1,0Z"/><path class="cls-2" d="M209.64,60.51c3.76,2.19,9.78-1.46,12.3-10.78.83-3.76.91-8.91-2.55-11.54-4.39-3.34-10.2,2.12-12.16,9.07-1.73,6.9-.33,11.65,2.41,13.25M173.8,59.99c-3.43-7.37-3.1-17.91,1.81-24.47,12.67-17.42,34.27-21.85,54.77-17.73,11.03,2.67,23.44,10.29,26.22,22.33,2.71,12.25-3.99,23.19-14.21,30.01-14.83,10.05-37.34,11.72-53.72,3.87-5.79-2.71-12.13-7.98-14.87-14"/><polygon class="cls-2" points="99.78 17.25 66.53 17.25 48.76 77.27 80.34 77.27 99.78 17.25"/><path class="cls-3" d="M46,47.91c-2.26,2.85-4.84,4.22-7.83,3.54-3.22-.88-6.81-4.61-9.03-8.98v-.21c4.26-5.82,4.42-13.29,4.42-13.29,0-.95-.05-1.84-.13-2.7h0c1.62-2.3,4.77-4.7,5.32-10.06.4-8.2-8.1-9.14-8.1-9.14-1.55-5.62-6.15-6.01-7.09-6.04v92.49c3.92-2.18,12.3-8.02,16.93-17.08,6.65-13.02,5.52-28.54,5.52-28.54h0Z"/><path class="cls-5" d="M1.09,47.91c2.26,2.85,4.84,4.22,7.83,3.54,3.22-.88,6.81-4.61,9.03-8.98v-.21c-4.26-5.82-4.42-13.29-4.42-13.29,0-.95.05-1.84.13-2.7h0c-1.62-2.3-4.77-4.7-5.32-10.06-.4-8.2,8.1-9.14,8.1-9.14,1.55-5.62,6.15-6.01,7.09-6.04v92.49c-3.92-2.18-12.3-8.02-16.93-17.08C-.05,63.42,1.08,47.9,1.08,47.9h.01Z"/><path class="cls-2" d="M48.76,35.43c2.93,0,5.24-2.31,5.24-5.21s-2.31-5.21-5.24-5.21-5.24,2.31-5.24,5.21,2.31,5.21,5.24,5.21M48.76,34.63c-2.39,0-4.44-1.95-4.44-4.41s2.05-4.41,4.44-4.41,4.44,1.95,4.44,4.41-2.05,4.41-4.44,4.41M49.52,30.4c1.02-.03,1.8-.44,1.8-1.56,0-1.23-1-1.51-2.03-1.51h-2.49v5.71h.8v-2.63h.96l1.71,2.63h.96l-1.73-2.63h.02ZM47.61,29.6v-1.47h1.53c.62,0,1.39.11,1.39.7,0,.91-1.24.78-1.95.78h-.97Z"/><path class="cls-2" d="M47.03,47.83l-.19-2.65-1.65,2.09c-2.13,2.69-4.35,3.73-6.75,3.19-2.73-.74-5.98-3.96-8.16-8.04,1.19-1.72,2.17-3.71,2.9-5.94,1.32-4.01,1.41-7.34,1.41-7.51,0-.81-.04-1.61-.1-2.39.29-.39.62-.79.98-1.22,1.71-2.03,3.84-4.56,4.31-9.1.33-6.77-4.97-9.49-8.34-10.12C29.83,1.39,25.92.06,23.71,0h0c-2.11-.09-6.41,1.11-8.11,6.14-3.37.63-8.67,3.35-8.33,10.17.46,4.49,2.59,7.02,4.3,9.05.38.45.74.88,1.04,1.3-.06.76-.09,1.54-.09,2.33,0,.14.09,3.48,1.41,7.48.73,2.23,1.71,4.21,2.9,5.94-2.18,4.08-5.44,7.3-8.12,8.03-2.44.55-4.66-.49-6.79-3.18l-1.65-2.09-.19,2.65c-.05.65-1.07,15.96,5.63,29.09,5.34,10.45,15.39,16.42,17.35,17.51l.5.28.5-.28c1.96-1.09,12.01-7.06,17.35-17.51,6.7-13.13,5.68-28.44,5.63-29.09h-.01ZM37.94,52.46c1.26.29,2.48.26,3.66-.07-2.21,2.33-5.42,4.92-9.03,5.26-2.78.26-5.46-.89-7.99-3.39v-6.55c1.61-.91,3.05-2.09,4.31-3.52,2.45,4.23,5.9,7.42,9.04,8.27h0ZM24.58,45.28v-3.6l4.73-1.63c-1.13,1.95-2.66,3.8-4.73,5.22h0ZM15.29,22.79l7.22-2.4v2.87l-7.78,2.76c.12-1.11.3-2.18.55-3.24h.01ZM32.36,26.03l-7.78-2.76v-2.87l7.23,2.43c.25,1.04.43,2.11.54,3.2h0ZM23.55,25.09l7.84,2.79-7.84,2.71-7.84-2.71s7.84-2.79,7.84-2.79ZM30.61,37.42l-6.02,2.07v-1.89l6.85-2.53c-.23.76-.5,1.55-.83,2.35ZM32.04,32.64l-7.45,2.76v-2.98l7.88-2.73c-.06.65-.18,1.69-.43,2.95ZM24.59,18.21v-3.14l4.94,1.79c.42.78.82,1.62,1.19,2.55.13.33.26.66.37.99l-6.51-2.19h.01ZM24.59,12.87v-2.05c1.05.81,2.12,1.85,3.14,3.19l-3.14-1.13h0ZM22.52,12.87l-3.11,1.11c1.01-1.33,2.07-2.36,3.11-3.16,0,0,0,2.05,0,2.05ZM17.6,16.82l4.92-1.75v3.14l-6.5,2.16c.11-.32.23-.64.36-.96.38-.94.79-1.8,1.22-2.59ZM22.52,32.42v2.98l-7.45-2.76c-.26-1.27-.38-2.3-.43-2.95l7.88,2.73ZM22.52,37.61v1.89l-6.02-2.07c-.33-.8-.6-1.59-.83-2.35l6.85,2.53ZM17.79,40.06l4.73,1.63v3.6c-2.07-1.42-3.6-3.28-4.73-5.22h0ZM37.72,16.11c-.37,3.67-2.04,5.8-3.59,7.64-.32-1.76-.82-3.46-1.49-5.12-1.96-4.85-4.58-7.8-7.03-9.6,2.35-.97,4.26-.97,4.83-.94h.08c.31.05,7.53.96,7.19,8.02h.01ZM23.52,2.07c.6,0,4,.25,5.66,3.99-1.13.09-2.73.38-4.54,1.15-.35.15-.71.32-1.08.52-.37-.2-.74-.37-1.08-.52-1.84-.79-3.48-1.07-4.61-1.16,1.65-3.72,4.99-3.98,5.65-3.99h0ZM9.33,16.16c-.35-7.1,6.86-8.03,7.18-8.06.21-.02,2.31-.18,4.99.93-2.44,1.8-5.07,4.76-7.03,9.6-.68,1.68-1.18,3.4-1.5,5.19-1.56-1.86-3.27-3.99-3.64-7.66ZM9.21,52.45c3.1-.84,6.55-4.03,9-8.26,1.26,1.43,2.71,2.61,4.31,3.52v6.55c-2.52,2.51-5.2,3.66-7.98,3.4-3.6-.34-6.82-2.93-9.04-5.27,1.19.33,2.42.35,3.71.06ZM39.56,75.98c-4.71,9.22-13.32,14.79-16.01,16.36-2.69-1.57-11.3-7.13-16.01-16.36-4.54-8.89-5.37-19.08-5.47-24.37,2.19,2.79,6.71,7.58,12.25,8.11.34.03.68.05,1.01.05,2.89,0,5.64-1.22,8.21-3.61,2.56,2.4,5.32,3.61,8.21,3.61.34,0,.67-.02,1.01-.05,5.55-.53,10.06-5.32,12.25-8.11-.09,5.29-.93,15.49-5.47,24.38h.02Z"/></g><g id="English"><path class="cls-4" d="M506.64,87.12c-.68,0-1.2.51-1.2,1.24s.51,1.27,1.2,1.27,1.2-.53,1.2-1.27-.51-1.24-1.2-1.24M496.4,83.64c.25-1.62,1.37-2.63,2.97-2.63s2.74.99,2.82,2.63h-5.79ZM499.35,79.26c-3.01.02-5.12,2.09-5.12,5.15s2.06,5.12,5.18,5.12c1.75,0,3.2-.63,4.19-1.71l-1.16-1.24c-.74.76-1.75,1.18-2.86,1.18-1.6,0-2.8-.97-3.14-2.53h7.65c.27-3.65-1.18-5.97-4.74-5.97M489.18,79.26c-3.01,0-5.1,2.09-5.1,5.15s2.09,5.12,5.1,5.12c1.92,0,3.39-.68,4.3-1.88l-1.22-1.22c-.69.8-1.71,1.22-2.99,1.22-1.75,0-3.01-1.31-3.01-3.24s1.26-3.24,3.01-3.24c1.22-.02,2.19.42,2.89,1.14l1.2-1.41c-.93-1.06-2.36-1.65-4.19-1.65M478.51,79.25c-1.71,0-3.01.61-3.74,2.01v-1.94h-2.19v10.12h2.19v-5.38c.15-1.58,1.2-2.74,2.88-2.76,1.52,0,2.44.93,2.44,2.45v5.69h2.19v-6.3c0-2.41-1.41-3.9-3.77-3.9M462.8,83.62c.25-1.62,1.37-2.63,2.97-2.63s2.74.99,2.82,2.63h-5.79ZM465.75,79.24c-3.01.02-5.12,2.09-5.12,5.15s2.06,5.12,5.18,5.12c1.75,0,3.2-.63,4.19-1.71l-1.16-1.24c-.74.76-1.75,1.18-2.86,1.18-1.6,0-2.8-.97-3.14-2.53h7.65c.27-3.65-1.18-5.97-4.74-5.97M453.14,87.71c-1.85,0-3.11-1.37-3.12-3.29.02-1.94,1.3-3.33,3.12-3.33s3.1,1.37,3.1,3.33-1.28,3.29-3.1,3.29M458.43,75.33h-2.19v5.74c-.74-1.18-1.96-1.84-3.6-1.84-2.86,0-4.82,2.07-4.82,5.12s1.94,5.19,4.86,5.19c1.62,0,2.84-.65,3.56-1.82v1.73h2.19v-14.11h0ZM443.56,89.44h2.17v-10.12h-2.17v10.12ZM437.45,79.68h-1.33v1.63h1.33v8.12h2.17v-8.12h2.65v-1.63h-2.65v-1.18c0-.99.59-1.35,1.37-1.35.53,0,1.16.17,1.75.44l.08-1.9c-.53-.3-1.2-.46-1.89-.46-1.7,0-3.48,1.06-3.48,3.48v.97h0ZM444.65,77.74c.72,0,1.27-.55,1.27-1.31s-.55-1.33-1.27-1.33-1.27.55-1.27,1.33.55,1.31,1.27,1.31M430.52,79.25c-1.71,0-3.01.61-3.74,2.01v-1.94h-2.19v10.12h2.19v-5.38c.15-1.58,1.2-2.74,2.88-2.76,1.52,0,2.44.93,2.44,2.45v5.69h2.19v-6.3c0-2.41-1.41-3.9-3.77-3.9M417.22,81.12c1.81,0,3.09,1.33,3.09,3.27s-1.28,3.29-3.09,3.29-3.11-1.33-3.11-3.29,1.28-3.27,3.11-3.27M417.22,79.24c-3.14,0-5.29,2.07-5.29,5.14s2.15,5.14,5.29,5.14,5.28-2.09,5.28-5.14-2.15-5.14-5.28-5.14M406.12,76.06c-3.94,0-7.01,2.91-7.01,6.69s3.02,6.77,6.93,6.77c1.89,0,3.81-.86,5.16-2.19l-1.33-1.48c-1.01.97-2.38,1.58-3.71,1.58-2.67,0-4.76-2.07-4.76-4.7s2.1-4.68,4.76-4.68c1.35,0,2.74.65,3.71,1.69l1.31-1.64c-1.29-1.27-3.18-2.05-5.07-2.05M386.53,82.17h-.06l.29-1.77.53-5.17h-2.61l-.1,1.04h1.33l-1.28,12.1h-1.33l-.11,1.04h3.9l.12-1.04h-1.3l.49-4.83c.06-.17.78-2.04,2.97-2.04,1.75,0,2.27,1.07,2.11,2.55l-.57,5.36h2.59l.11-1.04h-1.31l.48-4.49c.21-2.02-.69-3.48-3.03-3.48-2.59,0-3.24,1.77-3.24,1.77M379.6,78.18l-.48,2.36h-1.37l-.11,1.02h1.37l-.53,5.08c-.21,1.94.67,2.91,2.29,2.91,1.09,0,1.79-.28,1.79-.28l.11-1.08s-.65.29-1.6.29-1.45-.61-1.31-1.9l.53-5.01h2.8l.11-1.02h-2.8l.25-2.36h-1.05ZM375.62,80.54h-2.61l-.11,1.04h1.33l-.7,6.79h-1.33l-.11,1.04h3.9l.11-1.04h-1.29l.82-7.84h-.01ZM376.36,76.87c0-.53-.4-.95-.93-.95-.61,0-1.14.51-1.14,1.14,0,.53.38.93.91.93.61,0,1.16-.48,1.16-1.12M362.13,89.42l2.65-7.1h.1l1.18,7.1h1.37l3.45-7.84h1.3l.11-1.04h-3.69l-.11,1.04h1.1l-2.63,6.33h-.08l-1.24-7.38h-1.2l-2.76,7.38h-.1l-1.31-6.33h1.1l.11-1.04h-3.71l-.11,1.04h1.3l1.81,7.84h1.37,0ZM352.24,79.3h-2.19l-2.82,7.67-3.03-7.67h-2.27l4.19,9.97-.34.76c-.34.76-.88,1.12-1.54,1.12-.46,0-.84-.15-1.31-.49l-.93,1.69c.7.59,1.43.85,2.34.85,1.52,0,2.67-.8,3.29-2.39,0,0,4.61-11.51,4.61-11.51ZM340.7,77.11c.46,0,.97.17,1.39.48l.84-1.67c-.65-.48-1.47-.7-2.29-.7-1.75,0-3.48,1.12-3.48,3.48v.99h-1.33v1.63h1.33v8.1h2.17v-8.1h2.65v-1.63h-2.65v-1.2c0-.95.63-1.37,1.37-1.37M333.69,79.31h-2.17v10.12h2.17v-10.12ZM332.6,75.09c-.72,0-1.27.55-1.27,1.33s.55,1.31,1.27,1.31,1.28-.55,1.28-1.31-.55-1.33-1.28-1.33M325.11,79.24c-3.01,0-5.1,2.09-5.1,5.15s2.09,5.12,5.1,5.12c1.92,0,3.39-.68,4.3-1.88l-1.22-1.22c-.69.8-1.71,1.22-2.99,1.22-1.75,0-3.01-1.31-3.01-3.24s1.26-3.24,3.01-3.24c1.22-.02,2.19.42,2.9,1.14l1.2-1.41c-.93-1.06-2.36-1.65-4.19-1.65M311.17,83.61c.25-1.62,1.37-2.63,2.97-2.63s2.74.99,2.82,2.63h-5.79ZM314.12,79.23c-3.01.02-5.12,2.09-5.12,5.15s2.06,5.12,5.18,5.12c1.75,0,3.2-.63,4.19-1.71l-1.16-1.24c-.74.76-1.75,1.18-2.86,1.18-1.6,0-2.8-.97-3.14-2.53h7.65c.27-3.65-1.18-5.97-4.74-5.97M302.56,87.64c-1.81,0-3.09-1.35-3.09-3.31s1.28-3.27,3.09-3.27,3.09,1.39,3.09,3.27-1.28,3.31-3.09,3.31M303.02,79.23c-1.58,0-2.8.65-3.54,1.82v-1.75h-2.19v13.81h2.19v-5.44c.74,1.18,1.96,1.82,3.58,1.82,2.9,0,4.8-2.07,4.8-5.1s-1.96-5.17-4.84-5.17M290.05,76c-2.9,0-4.86,1.43-4.86,3.71,0,4.74,7.2,3.08,7.2,6.05,0,1.03-.93,1.62-2.5,1.62-1.43,0-3.14-.69-4.51-1.94l-.97,1.94c1.37,1.25,3.35,2.11,5.45,2.11,2.93,0,5.03-1.46,5.03-3.84.02-4.8-7.18-3.24-7.18-6.15,0-.89.86-1.39,2.17-1.39,1.01,0,2.46.36,3.9,1.24l.93-1.98c-1.24-.82-2.93-1.37-4.66-1.37"/><path class="cls-1" d="M596.87,61.33l.31-10.71h-5.68l-.04,4.77h-7.73v-17.08h3.46v-5.77h-14.61v5.77h3.51v17.28h-3.51v5.73h24.3-.01ZM557.21,47.35h-6l1.91-4.77c.31-.75.98-2.55.98-2.55h.22s.67,1.8.98,2.55l1.91,4.77h0ZM558.54,32.54h-14.66v5.73h3.91l-6.97,17.33h-3.11v5.73h13.55v-5.73h-3.33l1.11-2.76h10.35l1.11,2.76h-3.33v5.73h13.77v-5.73h-3.11l-9.28-23.06h0ZM535.49,61.33v-5.73h-3.51v-17.28h3.51v-5.77h-14.66v5.77h3.51v17.28h-3.51v5.73h14.66ZM505.6,55.6c-3.38,0-6.35-2.01-6.35-8.58s2.8-8.75,6.31-8.75c3.91,0,5.06,2.8,5.06,4.86v.88h7.37v-2.18c0-3.98-2.53-9.54-12.84-9.54-8.35,0-13.64,4.52-13.64,14.61s5.15,14.73,13.41,14.73c10.48,0,13.06-5.31,13.06-9.12v-1.34h-7.37c0,2.76-1.2,4.43-5.02,4.43M471.26,45.64v-7.16h3.55c2.93,0,4.66,1.09,4.66,3.35,0,2.59-1.42,3.81-4.66,3.81h-3.55ZM490,61.33v-5.73h-3.91l-3.07-4.94c-.36-.59-.84-.92-.84-.92v-.21c2.93-1.51,5.02-3.39,5.02-8.12,0-5.56-4.26-8.87-10.48-8.87h-16.61v5.77h3.51v17.28h-3.51v5.73h15.63v-5.73h-4.49v-4.35h3.91l5.6,10.09h9.24ZM456.42,61.33l.31-10.09h-5.68v4.14h-8.48v-5.61h6.62v-5.73h-6.62v-5.57h8.57v4.14h5.69l-.18-10.09h-25.18v5.73h3.46v17.33h-3.46v5.73h24.96v.02ZM405.74,59.07h4.93l5.55-14.4h.36l.93,10.92h-2.22v5.73h13.32v-5.73h-3.51l-.93-17.28h3.55v-5.77h-12.57l-4.8,11.13c-.49,1.09-1.69,5.15-1.69,5.15h-.75s-1.2-4.06-1.69-5.15l-4.8-11.13h-12.52v5.77h3.55l-1.2,17.28h-3.46v5.73h13.33v-5.73h-2.22l.93-10.92h.35l5.55,14.4h.01ZM362.48,59.07h4.93l5.55-14.4h.36l.93,10.92h-2.22v5.73h13.33v-5.73h-3.51l-.93-17.28h3.55v-5.77h-12.57l-4.8,11.13c-.49,1.09-1.69,5.15-1.69,5.15h-.76s-1.2-4.06-1.69-5.15l-4.8-11.13h-12.53v5.77h3.55l-1.2,17.28h-3.46v5.73h13.32v-5.73h-2.22l.93-10.92h.36l5.55,14.4h.02ZM327.75,55.6c-3.64,0-6.53-1.92-6.53-8.58s2.89-8.75,6.53-8.75,6.53,2.09,6.53,8.75-2.89,8.58-6.53,8.58M327.75,61.63c8.93,0,14.26-4.6,14.26-14.61s-5.33-14.73-14.26-14.73-14.26,4.73-14.26,14.73,5.33,14.61,14.26,14.61M298.52,55.6c-3.38,0-6.35-2.01-6.35-8.58s2.8-8.75,6.31-8.75c3.91,0,5.06,2.8,5.06,4.86v.88h7.37v-2.18c0-3.98-2.53-9.54-12.84-9.54-8.35,0-13.64,4.52-13.64,14.61s5.15,14.73,13.41,14.73c10.48,0,13.06-5.31,13.06-9.12v-1.34h-7.37c0,2.76-1.2,4.43-5.02,4.43"/><path class="cls-1" d="M597.65,34.85v-.95h.98c.4,0,.9.07.9.45,0,.59-.8.5-1.26.5h-.62ZM598.88,35.37c.66-.02,1.16-.28,1.16-1.01,0-.79-.65-.97-1.31-.97h-1.6v3.68h.52v-1.7h.62l1.1,1.7h.62l-1.11-1.7ZM598.39,38.1c-1.54,0-2.86-1.26-2.86-2.85s1.32-2.85,2.86-2.85,2.86,1.26,2.86,2.85-1.32,2.85-2.86,2.85M598.39,38.62c1.89,0,3.38-1.49,3.38-3.36s-1.49-3.36-3.38-3.36-3.38,1.49-3.38,3.36,1.49,3.36,3.38,3.36"/></g></g></svg>