<svg version="1.2" xmlns="http://www.w3.org/2000/svg" viewBox="0 0 1519 1316" width="1519" height="1316">
	<title>Sika Logo</title>
	<defs>
		<mask id="sika-mask">
			<path d="m759.4 0.3l758.6 1314.9h-1517.2z" fill="white"/>
			<path d="m646.5 913.2h-51.6c-7.3 0-14.2 5.9-15.5 13.1l-43.2 237.1c-1.3 7.2 3.5 13 10.7 13h51.5c7.2 0 14.1-5.8 15.4-13l43.3-237.1c1.4-7.2-3.5-13-10.6-13.1z" fill="black"/>
			<path d="m677.3 815.4l8.1-44.9c1.3-7.2-3.4-13-10.7-13h-51.6c-7.1 0-14 5.8-15.3 13l-8.1 44.9c-1.3 7.1 3.4 13 10.7 13h51.5c7.2 0 14.1-5.9 15.4-13z" fill="black"/>
			<path fill-rule="evenodd" d="m1194.1 1177.3c-9.7-2.6-29.1-12.5-38.3-12.5-10.4 0-42.7 16.3-87.3 16.3-50.1 0-58.5-23.8-73.5-23.4-7.2 0.2-44.5 23.9-75.8 23.4-52-1-78-110.2-128.9-110.2-14.1 0-20.5 4.8-24.7 15.9l-0.1-0.1-14.5 76.7c-1.3 7.2-8.2 13-15.3 13h-51.7c-7.2 0-11.9-5.8-10.6-13l123.6-678.7c1.3-7.2 8.2-13.1 15.5-13.1h51.5c7.2 0 12.1 5.9 10.7 13.1 0 0-89.6 495.3-91.5 503.7-5.5 25.9 73 10 103.1-59.6 6.9-14.2 14.8-15.7 20.7-15.6 6.2 0.1 36.4 0 44.5 0 11.4 0 10.4 14.9 8.9 20.7-15.5 61.8-88.4 99.5-88 107.3 0.4 7.7 44.2 51.5 52.8 64.6 8.5 13 41.2 5.9 41.2-13.4 0-111.1 168.5-77.9 180.9-77.4 14 0.6 13.2-32 12.5-37.8-0.6-5.7-12.8-12-46.1-12h-93.5c-8.1-0.2-13.8-5.5-12.8-11.9l6.1-28.6c1.1-6.4 8.3-11.5 16.3-11.4 0 0 135.5-1.6 150.6 4.4 41.8 16.4 43.3 50 41.6 75.4-1.6 25.4-17.8 104.8-17.8 109.5 0 13.5 20.6 10.4 29.3 13 8.7 2.6 7.8 12 7.3 15.6 0 0-2.6 23.9-6.1 32.8-3.5 8.9-16.9 19.6-40.6 13.3zm-47.7-84.4c0.8-24.2-20.4-30.9-51.3-32-30.7-1.1-68.7 6.8-68.7 31.5 0 18.1 21 36.5 59.3 34.7 32.6-1.6 60.1-16.2 60.7-34.2z" fill="black"/>
			<path d="m276.8 1181.9c3.8-1.9 6.2-4.2 8.2-5 1.7-0.5 4.8-0.3 9.1 0.5l0.5 0.2c35.8 10 165.2 44.7 197-106 0 0 87.9-481.7 88.1-482.8 0.7-5.7 10.8-66.9 95.9-38.2 28.6 9.7 31.1-4.6 31.9-7.2l13.1-56.3c0.4-16-12.4-12.3-37-17.1-18.9-3.5-24.4 6.6-28.6 8.6-4.4 2-19.4-1.6-41.7-2.6-12.9-0.6-90.8 9.1-106.5 85.2l-85.6 462.9c-3.9 13.8-2.6 144.6-152.7 70.8-25.6-12.6-35.3-5.9-37.6 7.2-1.5 9.4-8.7 56.9-9.9 66.6-0.5 4 2.4 10.2 9.9 11.4 7.9 1.3 20.4 3.1 26.6 4 8.9 1.3 14.4 0.3 18.5-1.8 0 0 0.8-0.4 0.8-0.4z" fill="black"/>
		</mask>
	</defs>
	<path d="m759.4 0.3l758.6 1314.9h-1517.2z" fill="white" mask="url(#sika-mask)"/>
	<path fill-rule="evenodd" fill="white" d="m1426 771.8c12.3 0 24.4 3.1 36.1 9.4q17.6 9.5 27.4 27.2c6.5 11.7 9.8 24 9.8 36.8 0 12.7-3.3 24.7-9.6 36.5q-9.7 17.5-27.2 27.1c-11.6 6.6-23.8 9.7-36.5 9.7-12.8 0-24.9-3.1-36.6-9.7q-17.4-9.6-27.1-27.1c-6.5-11.8-9.7-23.8-9.7-36.5 0-12.8 3.2-25.1 9.8-36.8 6.6-11.8 15.7-20.9 27.5-27.2 11.7-6.3 23.8-9.4 36.1-9.4zm0 12.1c-10.4 0-20.4 2.7-30.1 7.9-9.8 5.3-17.4 12.9-22.9 22.7-5.5 9.8-8.3 20-8.3 30.7 0 10.6 2.7 20.7 8.1 30.4 5.4 9.7 13 17.3 22.8 22.6 9.6 5.4 19.8 8.2 30.4 8.2 10.6 0 20.7-2.8 30.4-8.2 9.7-5.3 17.3-12.9 22.7-22.6 5.4-9.7 8.1-19.8 8.1-30.4 0-10.7-2.8-20.9-8.3-30.7-5.4-9.8-13.1-17.4-22.8-22.7-9.9-5.2-19.9-7.9-30.1-7.9zm-32.3 101.9v-79h27.2c9.3 0 16 0.6 20.2 2.2 4.1 1.4 7.4 4 9.9 7.6 2.5 3.6 3.7 7.5 3.7 11.5 0 5.8-2.1 10.9-6.2 15.1-4.1 4.3-9.6 6.7-16.4 7.3q4.1 1.6 6.7 4.1c3.2 3.2 7.1 8.3 11.7 15.7l9.6 15.5h-15.6l-7-12.5c-5.5-9.8-9.9-16-13.2-18.4-2.4-1.9-5.8-2.7-10.3-2.7h-7.5v33.6zm12.8-44.5h15.5c7.3 0 12.4-1.1 15-3.3 2.8-2.2 4.1-5.1 4.1-8.8 0-2.3-0.7-4.4-2-6.2-1.3-1.9-3-3.2-5.3-4.2-2.4-0.9-6.6-1.4-12.9-1.4h-14.4z"/>
</svg>